<mxfile host="app.diagrams.net" modified="2024-03-10T02:45:52.396Z" agent="Mozilla/5.0 (Macintosh; Intel Mac OS X 10_15_7) AppleWebKit/537.36 (KHTML, like Gecko) Chrome/122.0.0.0 Safari/537.36" etag="V5utG_sEnDWjgGOoOLYi" version="22.1.18" type="google">
  <diagram name="Page-1" id="UN56qBCIJDcJc-k5W3t_">
    <mxGraphModel grid="1" page="1" gridSize="10" guides="1" tooltips="1" connect="1" arrows="1" fold="1" pageScale="1" pageWidth="850" pageHeight="1100" math="0" shadow="0">
      <root>
        <mxCell id="0" />
        <mxCell id="1" parent="0" />
        <mxCell id="-CMiX3skhq2fSAHYhGBa-1" value="Uber Eats Process Map" style="swimlane;childLayout=stackLayout;resizeParent=1;resizeParentMax=0;startSize=20;html=1;" vertex="1" parent="1">
          <mxGeometry x="40.000000000000455" y="40" width="840" height="685" as="geometry" />
        </mxCell>
        <mxCell id="-CMiX3skhq2fSAHYhGBa-2" value="Company" style="swimlane;startSize=20;html=1;" vertex="1" parent="-CMiX3skhq2fSAHYhGBa-1">
          <mxGeometry y="20" width="200" height="665" as="geometry" />
        </mxCell>
        <mxCell id="-CMiX3skhq2fSAHYhGBa-10" style="edgeStyle=orthogonalEdgeStyle;rounded=0;orthogonalLoop=1;jettySize=auto;html=1;exitX=0.5;exitY=1;exitDx=0;exitDy=0;entryX=0.5;entryY=0;entryDx=0;entryDy=0;" edge="1" parent="-CMiX3skhq2fSAHYhGBa-2" source="-CMiX3skhq2fSAHYhGBa-6" target="-CMiX3skhq2fSAHYhGBa-7">
          <mxGeometry relative="1" as="geometry" />
        </mxCell>
        <mxCell id="-CMiX3skhq2fSAHYhGBa-6" value="" style="ellipse;whiteSpace=wrap;html=1;aspect=fixed;" vertex="1" parent="-CMiX3skhq2fSAHYhGBa-2">
          <mxGeometry x="40" y="30" width="40" height="40" as="geometry" />
        </mxCell>
        <mxCell id="-CMiX3skhq2fSAHYhGBa-7" value="&lt;font style=&quot;font-size: 9px;&quot;&gt;Create Menu on Uber Eats app&lt;/font&gt;" style="rounded=1;whiteSpace=wrap;html=1;" vertex="1" parent="-CMiX3skhq2fSAHYhGBa-2">
          <mxGeometry x="25" y="90" width="70" height="30" as="geometry" />
        </mxCell>
        <mxCell id="-CMiX3skhq2fSAHYhGBa-23" style="edgeStyle=orthogonalEdgeStyle;rounded=0;orthogonalLoop=1;jettySize=auto;html=1;exitX=0.5;exitY=1;exitDx=0;exitDy=0;entryX=0.5;entryY=0;entryDx=0;entryDy=0;" edge="1" parent="-CMiX3skhq2fSAHYhGBa-2" source="-CMiX3skhq2fSAHYhGBa-20" target="-CMiX3skhq2fSAHYhGBa-22">
          <mxGeometry relative="1" as="geometry" />
        </mxCell>
        <mxCell id="-CMiX3skhq2fSAHYhGBa-20" value="Receive and Create order" style="rounded=1;whiteSpace=wrap;html=1;" vertex="1" parent="-CMiX3skhq2fSAHYhGBa-2">
          <mxGeometry x="20" y="260" width="80" height="30" as="geometry" />
        </mxCell>
        <mxCell id="-CMiX3skhq2fSAHYhGBa-22" value="Finish order" style="rounded=1;whiteSpace=wrap;html=1;" vertex="1" parent="-CMiX3skhq2fSAHYhGBa-2">
          <mxGeometry x="20" y="402.5" width="80" height="30" as="geometry" />
        </mxCell>
        <mxCell id="-CMiX3skhq2fSAHYhGBa-11" style="edgeStyle=orthogonalEdgeStyle;rounded=0;orthogonalLoop=1;jettySize=auto;html=1;exitX=0.5;exitY=1;exitDx=0;exitDy=0;entryX=0.5;entryY=0;entryDx=0;entryDy=0;" edge="1" parent="-CMiX3skhq2fSAHYhGBa-2" source="-CMiX3skhq2fSAHYhGBa-7" target="-CMiX3skhq2fSAHYhGBa-20">
          <mxGeometry relative="1" as="geometry">
            <mxPoint x="59.999999999999545" y="140" as="sourcePoint" />
            <mxPoint x="149.99999999999955" y="220" as="targetPoint" />
          </mxGeometry>
        </mxCell>
        <mxCell id="-CMiX3skhq2fSAHYhGBa-3" value="Customer" style="swimlane;startSize=20;html=1;" vertex="1" parent="-CMiX3skhq2fSAHYhGBa-1">
          <mxGeometry x="200" y="20" width="200" height="665" as="geometry" />
        </mxCell>
        <mxCell id="-CMiX3skhq2fSAHYhGBa-13" style="edgeStyle=orthogonalEdgeStyle;rounded=0;orthogonalLoop=1;jettySize=auto;html=1;exitX=0.5;exitY=1;exitDx=0;exitDy=0;entryX=0.5;entryY=0;entryDx=0;entryDy=0;" edge="1" parent="-CMiX3skhq2fSAHYhGBa-3" source="-CMiX3skhq2fSAHYhGBa-8" target="-CMiX3skhq2fSAHYhGBa-12">
          <mxGeometry relative="1" as="geometry" />
        </mxCell>
        <mxCell id="-CMiX3skhq2fSAHYhGBa-8" value="Create Profile on App" style="rounded=1;whiteSpace=wrap;html=1;" vertex="1" parent="-CMiX3skhq2fSAHYhGBa-3">
          <mxGeometry x="20" y="90" width="80" height="30" as="geometry" />
        </mxCell>
        <mxCell id="-CMiX3skhq2fSAHYhGBa-15" style="edgeStyle=orthogonalEdgeStyle;rounded=0;orthogonalLoop=1;jettySize=auto;html=1;exitX=0.5;exitY=1;exitDx=0;exitDy=0;entryX=0.5;entryY=0;entryDx=0;entryDy=0;" edge="1" parent="-CMiX3skhq2fSAHYhGBa-3" source="-CMiX3skhq2fSAHYhGBa-12" target="-CMiX3skhq2fSAHYhGBa-14">
          <mxGeometry relative="1" as="geometry" />
        </mxCell>
        <mxCell id="-CMiX3skhq2fSAHYhGBa-12" value="&lt;font style=&quot;font-size: 12px;&quot;&gt;Selecting orders&lt;/font&gt;" style="rounded=1;whiteSpace=wrap;html=1;" vertex="1" parent="-CMiX3skhq2fSAHYhGBa-3">
          <mxGeometry x="19.999999999999545" y="140" width="80" height="30" as="geometry" />
        </mxCell>
        <mxCell id="-CMiX3skhq2fSAHYhGBa-14" value="Checkout their order&amp;nbsp;" style="rounded=1;whiteSpace=wrap;html=1;" vertex="1" parent="-CMiX3skhq2fSAHYhGBa-3">
          <mxGeometry x="20" y="190" width="80" height="30" as="geometry" />
        </mxCell>
        <mxCell id="-CMiX3skhq2fSAHYhGBa-29" style="edgeStyle=orthogonalEdgeStyle;rounded=0;orthogonalLoop=1;jettySize=auto;html=1;exitX=1;exitY=0.5;exitDx=0;exitDy=0;entryX=1;entryY=0.5;entryDx=0;entryDy=0;" edge="1" parent="-CMiX3skhq2fSAHYhGBa-3" source="-CMiX3skhq2fSAHYhGBa-25" target="-CMiX3skhq2fSAHYhGBa-12">
          <mxGeometry relative="1" as="geometry">
            <Array as="points">
              <mxPoint x="120" y="335" />
              <mxPoint x="120" y="155" />
            </Array>
          </mxGeometry>
        </mxCell>
        <mxCell id="iWNy5dSb5sZuWE5KbFKl-15" style="edgeStyle=orthogonalEdgeStyle;rounded=0;orthogonalLoop=1;jettySize=auto;html=1;exitX=0.5;exitY=1;exitDx=0;exitDy=0;entryX=0.5;entryY=0;entryDx=0;entryDy=0;" edge="1" parent="-CMiX3skhq2fSAHYhGBa-3" source="-CMiX3skhq2fSAHYhGBa-25" target="iWNy5dSb5sZuWE5KbFKl-14">
          <mxGeometry relative="1" as="geometry" />
        </mxCell>
        <mxCell id="-CMiX3skhq2fSAHYhGBa-25" value="&lt;font style=&quot;font-size: 12px;&quot;&gt;Continue ordering?&lt;/font&gt;" style="rhombus;whiteSpace=wrap;html=1;" vertex="1" parent="-CMiX3skhq2fSAHYhGBa-3">
          <mxGeometry x="20" y="300" width="80" height="70" as="geometry" />
        </mxCell>
        <mxCell id="-CMiX3skhq2fSAHYhGBa-24" style="edgeStyle=orthogonalEdgeStyle;rounded=0;orthogonalLoop=1;jettySize=auto;html=1;exitX=0.5;exitY=1;exitDx=0;exitDy=0;" edge="1" parent="-CMiX3skhq2fSAHYhGBa-3" source="-CMiX3skhq2fSAHYhGBa-14" target="-CMiX3skhq2fSAHYhGBa-25">
          <mxGeometry relative="1" as="geometry">
            <mxPoint x="59.999999999999545" y="310" as="targetPoint" />
          </mxGeometry>
        </mxCell>
        <mxCell id="-CMiX3skhq2fSAHYhGBa-30" value="Yes" style="text;html=1;align=center;verticalAlign=middle;resizable=0;points=[];autosize=1;strokeColor=none;fillColor=none;" vertex="1" parent="-CMiX3skhq2fSAHYhGBa-3">
          <mxGeometry x="89.99999999999955" y="330" width="40" height="30" as="geometry" />
        </mxCell>
        <mxCell id="-CMiX3skhq2fSAHYhGBa-39" value="Receive Food" style="whiteSpace=wrap;html=1;rounded=1;" vertex="1" parent="-CMiX3skhq2fSAHYhGBa-3">
          <mxGeometry x="85" y="510" width="100" height="28" as="geometry" />
        </mxCell>
        <mxCell id="iWNy5dSb5sZuWE5KbFKl-5" style="edgeStyle=orthogonalEdgeStyle;rounded=0;orthogonalLoop=1;jettySize=auto;html=1;exitX=0.5;exitY=1;exitDx=0;exitDy=0;entryX=0.5;entryY=0;entryDx=0;entryDy=0;" edge="1" parent="-CMiX3skhq2fSAHYhGBa-3" source="iWNy5dSb5sZuWE5KbFKl-4" target="-CMiX3skhq2fSAHYhGBa-8">
          <mxGeometry relative="1" as="geometry" />
        </mxCell>
        <mxCell id="iWNy5dSb5sZuWE5KbFKl-4" value="" style="ellipse;whiteSpace=wrap;html=1;aspect=fixed;" vertex="1" parent="-CMiX3skhq2fSAHYhGBa-3">
          <mxGeometry x="40" y="30" width="40" height="40" as="geometry" />
        </mxCell>
        <mxCell id="iWNy5dSb5sZuWE5KbFKl-16" style="edgeStyle=orthogonalEdgeStyle;rounded=0;orthogonalLoop=1;jettySize=auto;html=1;exitX=1;exitY=0.5;exitDx=0;exitDy=0;entryX=0.5;entryY=0;entryDx=0;entryDy=0;" edge="1" parent="-CMiX3skhq2fSAHYhGBa-3" source="iWNy5dSb5sZuWE5KbFKl-14" target="-CMiX3skhq2fSAHYhGBa-39">
          <mxGeometry relative="1" as="geometry" />
        </mxCell>
        <mxCell id="iWNy5dSb5sZuWE5KbFKl-19" style="edgeStyle=orthogonalEdgeStyle;rounded=0;orthogonalLoop=1;jettySize=auto;html=1;exitX=0.5;exitY=1;exitDx=0;exitDy=0;entryX=0.5;entryY=0;entryDx=0;entryDy=0;" edge="1" parent="-CMiX3skhq2fSAHYhGBa-3" source="iWNy5dSb5sZuWE5KbFKl-14" target="iWNy5dSb5sZuWE5KbFKl-18">
          <mxGeometry relative="1" as="geometry" />
        </mxCell>
        <mxCell id="iWNy5dSb5sZuWE5KbFKl-14" value="&lt;font style=&quot;font-size: 11px;&quot;&gt;Cancel order?&lt;/font&gt;" style="rhombus;whiteSpace=wrap;html=1;" vertex="1" parent="-CMiX3skhq2fSAHYhGBa-3">
          <mxGeometry x="20" y="440" width="80" height="70" as="geometry" />
        </mxCell>
        <mxCell id="iWNy5dSb5sZuWE5KbFKl-17" value="No" style="text;html=1;align=center;verticalAlign=middle;resizable=0;points=[];autosize=1;strokeColor=none;fillColor=none;" vertex="1" parent="-CMiX3skhq2fSAHYhGBa-3">
          <mxGeometry x="99.99999999999955" y="450" width="40" height="30" as="geometry" />
        </mxCell>
        <mxCell id="iWNy5dSb5sZuWE5KbFKl-18" value="Done" style="ellipse;whiteSpace=wrap;html=1;rounded=1;strokeWidth=4;" vertex="1" parent="-CMiX3skhq2fSAHYhGBa-3">
          <mxGeometry x="40" y="620" width="40" height="35" as="geometry" />
        </mxCell>
        <mxCell id="iWNy5dSb5sZuWE5KbFKl-20" value="Yes" style="text;html=1;align=center;verticalAlign=middle;resizable=0;points=[];autosize=1;strokeColor=none;fillColor=none;" vertex="1" parent="-CMiX3skhq2fSAHYhGBa-3">
          <mxGeometry x="19.999999999999545" y="508" width="40" height="30" as="geometry" />
        </mxCell>
        <mxCell id="iWNy5dSb5sZuWE5KbFKl-21" value="No" style="text;html=1;align=center;verticalAlign=middle;resizable=0;points=[];autosize=1;strokeColor=none;fillColor=none;" vertex="1" parent="-CMiX3skhq2fSAHYhGBa-3">
          <mxGeometry x="19.999999999999545" y="370" width="40" height="30" as="geometry" />
        </mxCell>
        <mxCell id="-CMiX3skhq2fSAHYhGBa-5" value="Uber Services (app)" style="swimlane;startSize=20;html=1;" vertex="1" parent="-CMiX3skhq2fSAHYhGBa-1">
          <mxGeometry x="400" y="20" width="200" height="665" as="geometry" />
        </mxCell>
        <mxCell id="-CMiX3skhq2fSAHYhGBa-19" style="edgeStyle=orthogonalEdgeStyle;rounded=0;orthogonalLoop=1;jettySize=auto;html=1;exitX=0.5;exitY=1;exitDx=0;exitDy=0;entryX=0.5;entryY=0;entryDx=0;entryDy=0;" edge="1" parent="-CMiX3skhq2fSAHYhGBa-5" source="-CMiX3skhq2fSAHYhGBa-16" target="-CMiX3skhq2fSAHYhGBa-18">
          <mxGeometry relative="1" as="geometry" />
        </mxCell>
        <mxCell id="-CMiX3skhq2fSAHYhGBa-16" value="Process Payment" style="rounded=1;whiteSpace=wrap;html=1;" vertex="1" parent="-CMiX3skhq2fSAHYhGBa-5">
          <mxGeometry x="17.5" y="190" width="85" height="30" as="geometry" />
        </mxCell>
        <mxCell id="-CMiX3skhq2fSAHYhGBa-18" value="&lt;font style=&quot;font-size: 8px;&quot;&gt;Send order information to Company&lt;/font&gt;" style="rounded=1;whiteSpace=wrap;html=1;" vertex="1" parent="-CMiX3skhq2fSAHYhGBa-5">
          <mxGeometry x="15" y="260" width="90" height="30" as="geometry" />
        </mxCell>
        <mxCell id="-CMiX3skhq2fSAHYhGBa-26" value="&lt;font style=&quot;font-size: 10px;&quot;&gt;Send out search for Uber delivery person&lt;/font&gt;" style="rounded=1;whiteSpace=wrap;html=1;" vertex="1" parent="-CMiX3skhq2fSAHYhGBa-5">
          <mxGeometry x="20" y="317.5" width="100" height="35" as="geometry" />
        </mxCell>
        <mxCell id="-CMiX3skhq2fSAHYhGBa-44" value="" style="edgeStyle=orthogonalEdgeStyle;rounded=0;orthogonalLoop=1;jettySize=auto;html=1;" edge="1" parent="-CMiX3skhq2fSAHYhGBa-5" source="-CMiX3skhq2fSAHYhGBa-41" target="-CMiX3skhq2fSAHYhGBa-43">
          <mxGeometry relative="1" as="geometry" />
        </mxCell>
        <mxCell id="-CMiX3skhq2fSAHYhGBa-41" value="Process Payment" style="rounded=1;whiteSpace=wrap;html=1;" vertex="1" parent="-CMiX3skhq2fSAHYhGBa-5">
          <mxGeometry x="20" y="570" width="105" height="30" as="geometry" />
        </mxCell>
        <mxCell id="-CMiX3skhq2fSAHYhGBa-43" value="Done" style="ellipse;whiteSpace=wrap;html=1;rounded=1;strokeWidth=4;" vertex="1" parent="-CMiX3skhq2fSAHYhGBa-5">
          <mxGeometry x="52.5" y="620" width="40" height="35" as="geometry" />
        </mxCell>
        <mxCell id="-CMiX3skhq2fSAHYhGBa-4" value="Uber Delivery" style="swimlane;startSize=20;html=1;" vertex="1" parent="-CMiX3skhq2fSAHYhGBa-1">
          <mxGeometry x="600" y="20" width="240" height="665" as="geometry" />
        </mxCell>
        <mxCell id="-CMiX3skhq2fSAHYhGBa-35" value="" style="edgeStyle=orthogonalEdgeStyle;rounded=0;orthogonalLoop=1;jettySize=auto;html=1;entryX=0.5;entryY=0;entryDx=0;entryDy=0;" edge="1" parent="-CMiX3skhq2fSAHYhGBa-4" target="-CMiX3skhq2fSAHYhGBa-34">
          <mxGeometry relative="1" as="geometry">
            <mxPoint x="99.99999999999955" y="335" as="sourcePoint" />
            <mxPoint x="119.99999999999955" y="335" as="targetPoint" />
          </mxGeometry>
        </mxCell>
        <mxCell id="-CMiX3skhq2fSAHYhGBa-33" value="&lt;font style=&quot;font-size: 12px;&quot;&gt;Accept Order&lt;/font&gt;" style="rhombus;whiteSpace=wrap;html=1;" vertex="1" parent="-CMiX3skhq2fSAHYhGBa-4">
          <mxGeometry x="20" y="297.5" width="80" height="75" as="geometry" />
        </mxCell>
        <mxCell id="-CMiX3skhq2fSAHYhGBa-34" value="Pick up order from Company" style="rounded=1;whiteSpace=wrap;html=1;" vertex="1" parent="-CMiX3skhq2fSAHYhGBa-4">
          <mxGeometry x="130" y="400" width="100" height="35" as="geometry" />
        </mxCell>
        <mxCell id="-CMiX3skhq2fSAHYhGBa-36" value="Yes" style="text;html=1;align=center;verticalAlign=middle;resizable=0;points=[];autosize=1;strokeColor=none;fillColor=none;" vertex="1" parent="-CMiX3skhq2fSAHYhGBa-4">
          <mxGeometry x="89.99999999999955" y="310" width="40" height="30" as="geometry" />
        </mxCell>
        <mxCell id="iWNy5dSb5sZuWE5KbFKl-7" style="edgeStyle=orthogonalEdgeStyle;rounded=0;orthogonalLoop=1;jettySize=auto;html=1;entryX=0.5;entryY=0;entryDx=0;entryDy=0;exitX=0.5;exitY=1;exitDx=0;exitDy=0;" edge="1" parent="-CMiX3skhq2fSAHYhGBa-4" source="iWNy5dSb5sZuWE5KbFKl-6" target="iWNy5dSb5sZuWE5KbFKl-8">
          <mxGeometry relative="1" as="geometry">
            <mxPoint x="50" y="100" as="targetPoint" />
          </mxGeometry>
        </mxCell>
        <mxCell id="iWNy5dSb5sZuWE5KbFKl-6" value="" style="ellipse;whiteSpace=wrap;html=1;aspect=fixed;" vertex="1" parent="-CMiX3skhq2fSAHYhGBa-4">
          <mxGeometry x="40" y="30" width="40" height="40" as="geometry" />
        </mxCell>
        <mxCell id="iWNy5dSb5sZuWE5KbFKl-22" style="edgeStyle=orthogonalEdgeStyle;rounded=0;orthogonalLoop=1;jettySize=auto;html=1;exitX=0.5;exitY=1;exitDx=0;exitDy=0;entryX=0.5;entryY=0;entryDx=0;entryDy=0;" edge="1" parent="-CMiX3skhq2fSAHYhGBa-4" source="iWNy5dSb5sZuWE5KbFKl-8" target="-CMiX3skhq2fSAHYhGBa-33">
          <mxGeometry relative="1" as="geometry" />
        </mxCell>
        <mxCell id="iWNy5dSb5sZuWE5KbFKl-8" value="Create Profile on App" style="rounded=1;whiteSpace=wrap;html=1;" vertex="1" parent="-CMiX3skhq2fSAHYhGBa-4">
          <mxGeometry x="20" y="90" width="80" height="30" as="geometry" />
        </mxCell>
        <mxCell id="-CMiX3skhq2fSAHYhGBa-38" value="No" style="text;html=1;align=center;verticalAlign=middle;resizable=0;points=[];autosize=1;strokeColor=none;fillColor=none;" vertex="1" parent="-CMiX3skhq2fSAHYhGBa-4">
          <mxGeometry x="19.999999999999545" y="360" width="40" height="30" as="geometry" />
        </mxCell>
        <mxCell id="-CMiX3skhq2fSAHYhGBa-17" style="edgeStyle=orthogonalEdgeStyle;rounded=0;orthogonalLoop=1;jettySize=auto;html=1;exitX=1;exitY=0.5;exitDx=0;exitDy=0;entryX=0;entryY=0.5;entryDx=0;entryDy=0;" edge="1" parent="-CMiX3skhq2fSAHYhGBa-1" source="-CMiX3skhq2fSAHYhGBa-14" target="-CMiX3skhq2fSAHYhGBa-16">
          <mxGeometry relative="1" as="geometry" />
        </mxCell>
        <mxCell id="-CMiX3skhq2fSAHYhGBa-21" style="edgeStyle=orthogonalEdgeStyle;rounded=0;orthogonalLoop=1;jettySize=auto;html=1;exitX=0;exitY=0.5;exitDx=0;exitDy=0;entryX=1;entryY=0.5;entryDx=0;entryDy=0;" edge="1" parent="-CMiX3skhq2fSAHYhGBa-1" source="-CMiX3skhq2fSAHYhGBa-18" target="-CMiX3skhq2fSAHYhGBa-20">
          <mxGeometry relative="1" as="geometry" />
        </mxCell>
        <mxCell id="-CMiX3skhq2fSAHYhGBa-27" value="" style="edgeStyle=orthogonalEdgeStyle;rounded=0;orthogonalLoop=1;jettySize=auto;html=1;exitX=1;exitY=0.5;exitDx=0;exitDy=0;" edge="1" parent="-CMiX3skhq2fSAHYhGBa-1" source="-CMiX3skhq2fSAHYhGBa-14" target="-CMiX3skhq2fSAHYhGBa-26">
          <mxGeometry relative="1" as="geometry">
            <Array as="points">
              <mxPoint x="360" y="225" />
              <mxPoint x="360" y="355" />
            </Array>
          </mxGeometry>
        </mxCell>
        <mxCell id="-CMiX3skhq2fSAHYhGBa-37" style="edgeStyle=orthogonalEdgeStyle;rounded=0;orthogonalLoop=1;jettySize=auto;html=1;exitX=0.5;exitY=1;exitDx=0;exitDy=0;entryX=0.5;entryY=1;entryDx=0;entryDy=0;" edge="1" parent="-CMiX3skhq2fSAHYhGBa-1" source="-CMiX3skhq2fSAHYhGBa-33" target="-CMiX3skhq2fSAHYhGBa-26">
          <mxGeometry relative="1" as="geometry" />
        </mxCell>
        <mxCell id="-CMiX3skhq2fSAHYhGBa-40" value="" style="edgeStyle=orthogonalEdgeStyle;rounded=0;orthogonalLoop=1;jettySize=auto;html=1;exitX=0.5;exitY=1;exitDx=0;exitDy=0;entryX=1;entryY=0.5;entryDx=0;entryDy=0;" edge="1" parent="-CMiX3skhq2fSAHYhGBa-1" source="-CMiX3skhq2fSAHYhGBa-34" target="-CMiX3skhq2fSAHYhGBa-39">
          <mxGeometry relative="1" as="geometry">
            <Array as="points">
              <mxPoint x="780" y="544" />
            </Array>
          </mxGeometry>
        </mxCell>
        <mxCell id="-CMiX3skhq2fSAHYhGBa-42" value="" style="edgeStyle=orthogonalEdgeStyle;rounded=0;orthogonalLoop=1;jettySize=auto;html=1;exitX=0.5;exitY=1;exitDx=0;exitDy=0;entryX=0.5;entryY=0;entryDx=0;entryDy=0;" edge="1" parent="-CMiX3skhq2fSAHYhGBa-1" source="-CMiX3skhq2fSAHYhGBa-39" target="-CMiX3skhq2fSAHYhGBa-41">
          <mxGeometry relative="1" as="geometry">
            <Array as="points">
              <mxPoint x="335" y="570" />
              <mxPoint x="472" y="570" />
            </Array>
            <mxPoint x="259.99999999999955" y="510" as="sourcePoint" />
          </mxGeometry>
        </mxCell>
        <mxCell id="iWNy5dSb5sZuWE5KbFKl-2" style="edgeStyle=orthogonalEdgeStyle;rounded=0;orthogonalLoop=1;jettySize=auto;html=1;exitX=1;exitY=0.5;exitDx=0;exitDy=0;entryX=0;entryY=0.5;entryDx=0;entryDy=0;" edge="1" parent="-CMiX3skhq2fSAHYhGBa-1" source="-CMiX3skhq2fSAHYhGBa-26" target="-CMiX3skhq2fSAHYhGBa-33">
          <mxGeometry relative="1" as="geometry" />
        </mxCell>
        <mxCell id="iWNy5dSb5sZuWE5KbFKl-12" style="edgeStyle=orthogonalEdgeStyle;rounded=0;orthogonalLoop=1;jettySize=auto;html=1;entryX=0;entryY=0.5;entryDx=0;entryDy=0;exitX=1;exitY=0.5;exitDx=0;exitDy=0;" edge="1" parent="-CMiX3skhq2fSAHYhGBa-1" source="-CMiX3skhq2fSAHYhGBa-22" target="-CMiX3skhq2fSAHYhGBa-34">
          <mxGeometry relative="1" as="geometry">
            <mxPoint x="719.9999999999995" y="435" as="targetPoint" />
            <Array as="points">
              <mxPoint x="100" y="438" />
              <mxPoint x="415" y="438" />
            </Array>
          </mxGeometry>
        </mxCell>
        <mxCell id="iWNy5dSb5sZuWE5KbFKl-23" style="edgeStyle=orthogonalEdgeStyle;rounded=0;orthogonalLoop=1;jettySize=auto;html=1;exitX=1;exitY=0.5;exitDx=0;exitDy=0;entryX=1;entryY=0.5;entryDx=0;entryDy=0;" edge="1" parent="-CMiX3skhq2fSAHYhGBa-1" source="-CMiX3skhq2fSAHYhGBa-33" target="-CMiX3skhq2fSAHYhGBa-18">
          <mxGeometry relative="1" as="geometry">
            <Array as="points">
              <mxPoint x="740" y="355" />
              <mxPoint x="740" y="295" />
            </Array>
          </mxGeometry>
        </mxCell>
      </root>
    </mxGraphModel>
  </diagram>
</mxfile>
